<svg xmlns="http://www.w3.org/2000/svg" width="22.501" height="29.527" viewBox="0 0 22.501 29.527">
  <g id="Arrow" transform="translate(68.008 345)">
    <path id="Icon_awesome-angle-down" data-name="Icon awesome-angle-down" d="M10.055,24.771.492,15.209a1.681,1.681,0,0,1,0-2.384l1.589-1.589a1.681,1.681,0,0,1,2.384,0l6.778,6.778,6.778-6.778a1.681,1.681,0,0,1,2.384,0l1.589,1.589a1.681,1.681,0,0,1,0,2.384l-9.562,9.562a1.672,1.672,0,0,1-2.377,0Z" transform="translate(-67.996 -340.74)" fill="#fcf9f9"/>
    <path id="Icon_awesome-angle-down-2" data-name="Icon awesome-angle-down" d="M10.055,24.771.492,15.209a1.681,1.681,0,0,1,0-2.384l1.589-1.589a1.681,1.681,0,0,1,2.384,0l6.778,6.778,6.778-6.778a1.681,1.681,0,0,1,2.384,0l1.589,1.589a1.681,1.681,0,0,1,0,2.384l-9.562,9.562a1.672,1.672,0,0,1-2.377,0Z" transform="translate(-68.005 -355.74)" fill="#f6f5f5"/>
  </g>
</svg>
