<svg xmlns="http://www.w3.org/2000/svg" width="42.379" height="53.981" viewBox="0 0 42.379 53.981">
  <path id="Icon_awesome-angle-double-down" data-name="Icon awesome-angle-double-down" d="M18.935,31.016.93,12.6a3.29,3.29,0,0,1,0-4.591L3.922,4.945a3.115,3.115,0,0,1,4.488,0L21.173,18,33.935,4.945a3.115,3.115,0,0,1,4.488,0l3.019,3.047a3.29,3.29,0,0,1,0,4.591L23.437,31A3.119,3.119,0,0,1,18.935,31.016Zm4.5,26L41.442,38.6a3.29,3.29,0,0,0,0-4.591L38.45,30.948a3.115,3.115,0,0,0-4.488,0L21.186,43.99,8.423,30.934a3.115,3.115,0,0,0-4.488,0L.93,34a3.29,3.29,0,0,0,0,4.591L18.935,57A3.119,3.119,0,0,0,23.437,57.018Z" transform="translate(0.004 -3.99)" fill="#f9f4f4"/>
</svg>
